<svg width="1170" height="100" viewBox="0 0 1170 100" fill="none" xmlns="http://www.w3.org/2000/svg">
<path d="M496.68 42.48C494.28 42.48 492.227 42.0667 490.52 41.24C488.84 40.4133 487.467 39.32 486.4 37.96L489.56 34.68C490.6 35.88 491.72 36.7733 492.92 37.36C494.147 37.92 495.453 38.2 496.84 38.2C498.44 38.2 499.667 37.84 500.52 37.12C501.373 36.4 501.8 35.36 501.8 34C501.8 32.88 501.48 32.04 500.84 31.48C500.2 30.8933 499.12 30.48 497.6 30.24L494.64 29.76C492.053 29.3067 490.213 28.3733 489.12 26.96C488.027 25.52 487.48 23.8267 487.48 21.88C487.48 19.2133 488.347 17.1733 490.08 15.76C491.813 14.32 494.213 13.6 497.28 13.6C499.467 13.6 501.347 13.9467 502.92 14.64C504.52 15.3333 505.8 16.28 506.76 17.48L503.68 20.76C502.933 19.88 502.04 19.1867 501 18.68C499.96 18.1467 498.733 17.88 497.32 17.88C494.28 17.88 492.76 19.1333 492.76 21.64C492.76 22.7067 493.08 23.52 493.72 24.08C494.36 24.64 495.453 25.0533 497 25.32L499.92 25.84C502.347 26.2933 504.147 27.1867 505.32 28.52C506.493 29.8533 507.08 31.56 507.08 33.64C507.08 34.9467 506.853 36.1467 506.4 37.24C505.947 38.3067 505.28 39.24 504.4 40.04C503.52 40.8133 502.427 41.4133 501.12 41.84C499.84 42.2667 498.36 42.48 496.68 42.48ZM520.184 42V14.08H530.784C533.504 14.08 535.584 14.8533 537.024 16.4C538.464 17.9467 539.184 20.0533 539.184 22.72C539.184 25.3867 538.464 27.4933 537.024 29.04C535.584 30.5867 533.504 31.36 530.784 31.36H525.424V42H520.184ZM525.424 27.08H529.704C531.118 27.08 532.131 26.8 532.744 26.24C533.358 25.6533 533.664 24.7333 533.664 23.48V21.96C533.664 20.7067 533.358 19.8 532.744 19.24C532.131 18.6533 531.118 18.36 529.704 18.36H525.424V27.08ZM552.969 42V14.08H558.209V37.68H570.569V42H552.969ZM595.553 18.4V42H590.353V18.4H581.953V14.08H603.953V18.4H595.553ZM499.6 68.4V92H494.4V68.4H486V64.08H508V68.4H499.6ZM531.584 68.4V92H526.384V68.4H517.984V64.08H539.984V68.4H531.584ZM552.289 92V64.08H569.929V68.4H557.529V75.68H569.489V80H557.529V87.68H569.929V92H552.289ZM589.393 92H584.153V64.08H594.753C597.473 64.08 599.553 64.8533 600.993 66.4C602.433 67.9467 603.153 70.0533 603.153 72.72C603.153 74.7733 602.673 76.5067 601.713 77.92C600.78 79.3067 599.433 80.1867 597.673 80.56L603.633 92H597.873L592.553 81.16H589.393V92ZM593.673 77.08C595.086 77.08 596.1 76.8 596.713 76.24C597.326 75.6533 597.633 74.7333 597.633 73.48V71.96C597.633 70.7067 597.326 69.8 596.713 69.24C596.1 68.6533 595.086 68.36 593.673 68.36H589.393V77.08H593.673Z" fill="#406667"/>
</svg>
